<svg xmlns="http://www.w3.org/2000/svg"  viewBox="0 0 24 24" width="24px" height="24px"><path d="M 16.75 1 C 16.02 1 15.329609 1.185625 14.724609 1.515625 L 5.2753906 6.4902344 C 3.9253906 7.2002344 3 8.62 3 10.25 C 3 12.345 4.520625 14.085547 6.515625 14.435547 L 5.3359375 14.955078 C 3.9509375 15.660078 3 17.095 3 18.75 C 3 21.095 4.905 23 7.25 23 C 7.985 23 8.6753906 22.814375 9.2753906 22.484375 L 18.589844 17.580078 C 20.014844 16.895078 21 15.435 21 13.75 C 21 11.655 19.479375 9.9144531 17.484375 9.5644531 L 18.664062 9.0449219 C 20.049063 8.3399219 21 6.905 21 5.25 C 21 2.905 19.095 1 16.75 1 z M 10.501953 9.3828125 C 10.587953 9.3828125 10.675812 9.404125 10.757812 9.453125 L 14.285156 11.570312 C 14.609156 11.764313 14.609156 12.233734 14.285156 12.427734 L 10.757812 14.544922 C 10.675813 14.594922 10.587953 14.617187 10.501953 14.617188 C 10.240953 14.617188 10 14.410188 10 14.117188 L 10 9.8828125 C 10 9.5908125 10.240953 9.3828125 10.501953 9.3828125 z"/></svg>